<svg width="40" height="40" viewBox="0 0 40 40" fill="none" xmlns="http://www.w3.org/2000/svg">
<path fill-rule="evenodd" clip-rule="evenodd" d="M37.6426 24.1152C36.5966 23.7432 35.4566 24.2892 35.0906 25.3332C32.8346 31.7132 26.7686 35.9992 20.0006 35.9992C11.1786 35.9992 4.00061 28.8232 4.00061 19.9992C4.00061 13.2312 8.28661 7.16521 14.6666 4.90921C15.7086 4.54321 16.2546 3.40121 15.8866 2.35921C15.5186 1.31921 14.3766 0.771207 13.3346 1.14121C5.35861 3.95921 0.000610352 11.5372 0.000610352 19.9992C0.000610352 31.0272 8.97261 39.9992 20.0006 39.9992C28.4626 39.9992 36.0406 34.6432 38.8606 26.6652C39.2286 25.6252 38.6846 24.4832 37.6426 24.1152Z" fill="#152724"/>
<path fill-rule="evenodd" clip-rule="evenodd" d="M22 3.05176e-05C20.896 3.05176e-05 20 0.89403 20 2.00003V18C20 19.106 20.896 20 22 20H38C39.104 20 40 19.106 40 18C40 8.07403 31.924 3.05176e-05 22 3.05176e-05Z" fill="#152724"/>
<path fill-rule="evenodd" clip-rule="evenodd" d="M24.0001 16V4.14203C30.1221 5.02203 34.9781 9.87603 35.8581 16H24.0001Z" fill="#152724"/>
</svg>
