<svg width="107" height="53" viewBox="0 0 107 53" fill="none" xmlns="http://www.w3.org/2000/svg">
<rect y="0.534882" width="6.88372" height="40.3721" rx="3.44186" fill="#39D8A8"/>
<rect x="8" y="17.2558" width="6.88372" height="28.6512" rx="3.44186" fill="#39D8A8"/>
<rect x="16" y="23.9767" width="6.88372" height="28.6512" rx="3.44186" fill="#39D8A8"/>
<path d="M35.946 32.907H33.3093V20.1101H35.946V32.907ZM41.1091 23.3972L41.1882 24.4958C41.8679 23.6462 42.779 23.2214 43.9216 23.2214C44.9294 23.2214 45.6794 23.5173 46.1716 24.1091C46.6638 24.7009 46.9157 25.5857 46.9275 26.7634V32.907H44.3874V26.825C44.3874 26.2859 44.2702 25.8962 44.0358 25.656C43.8015 25.4099 43.4118 25.2869 42.8669 25.2869C42.1521 25.2869 41.6159 25.5916 41.2585 26.2009V32.907H38.7185V23.3972H41.1091ZM52.9606 29.8044L54.7272 23.3972H57.3815L54.1735 32.907H51.7477L48.5397 23.3972H51.194L52.9606 29.8044ZM58.5104 28.0642C58.5104 27.1208 58.692 26.28 59.0553 25.5417C59.4186 24.8035 59.9401 24.2322 60.6198 23.8279C61.3053 23.4236 62.0992 23.2214 63.0016 23.2214C64.2848 23.2214 65.3307 23.614 66.1393 24.3992C66.9537 25.1843 67.4078 26.2507 67.5016 27.5984L67.5192 28.2488C67.5192 29.7078 67.1119 30.8796 66.2975 31.7644C65.483 32.6433 64.3903 33.0828 63.0192 33.0828C61.6481 33.0828 60.5524 32.6433 59.7321 31.7644C58.9176 30.8855 58.5104 29.6902 58.5104 28.1785V28.0642ZM61.0504 28.2488C61.0504 29.1511 61.2203 29.8425 61.5602 30.323C61.9 30.7976 62.3864 31.0349 63.0192 31.0349C63.6344 31.0349 64.1149 30.8005 64.4606 30.3318C64.8063 29.8572 64.9791 29.1013 64.9791 28.0642C64.9791 27.1794 64.8063 26.4939 64.4606 26.0076C64.1149 25.5212 63.6285 25.2781 63.0016 25.2781C62.3805 25.2781 61.9 25.5212 61.5602 26.0076C61.2203 26.488 61.0504 27.2351 61.0504 28.2488ZM72.3043 32.907H69.7555V23.3972H72.3043V32.907ZM69.606 20.9363C69.606 20.5554 69.732 20.2419 69.984 19.9958C70.2418 19.7498 70.5904 19.6267 71.0299 19.6267C71.4635 19.6267 71.8092 19.7498 72.067 19.9958C72.3248 20.2419 72.4537 20.5554 72.4537 20.9363C72.4537 21.323 72.3219 21.6394 72.0582 21.8855C71.8004 22.1316 71.4576 22.2546 71.0299 22.2546C70.6021 22.2546 70.2564 22.1316 69.9928 21.8855C69.735 21.6394 69.606 21.323 69.606 20.9363ZM78.9 31.0349C79.3687 31.0349 79.7496 30.906 80.0425 30.6482C80.3355 30.3904 80.4878 30.0476 80.4996 29.6199H82.8814C82.8755 30.2644 82.6998 30.8562 82.3541 31.3953C82.0084 31.9285 81.5337 32.3445 80.9302 32.6433C80.3326 32.9363 79.6705 33.0828 78.9439 33.0828C77.5845 33.0828 76.5123 32.6521 75.7271 31.7908C74.9419 30.9236 74.5494 29.7283 74.5494 28.2048V28.0378C74.5494 26.573 74.939 25.4041 75.7183 24.531C76.4976 23.658 77.5669 23.2214 78.9263 23.2214C80.1158 23.2214 81.0679 23.5613 81.7828 24.241C82.5035 24.9148 82.8697 25.8142 82.8814 26.9392H80.4996C80.4878 26.447 80.3355 26.0486 80.0425 25.7439C79.7496 25.4333 79.3628 25.2781 78.8824 25.2781C78.2906 25.2781 77.8423 25.4949 77.5376 25.9285C77.2388 26.3562 77.0894 27.0535 77.0894 28.0203V28.2839C77.0894 29.2625 77.2388 29.9656 77.5376 30.3933C77.8365 30.821 78.2906 31.0349 78.9 31.0349ZM89.2485 33.0828C87.854 33.0828 86.7173 32.655 85.8384 31.7996C84.9653 30.9441 84.5288 29.8044 84.5288 28.3806V28.1345C84.5288 27.1794 84.7134 26.3269 85.0825 25.5769C85.4517 24.821 85.9732 24.241 86.647 23.8367C87.3267 23.4265 88.1001 23.2214 88.9673 23.2214C90.2681 23.2214 91.2905 23.6316 92.0347 24.4519C92.7847 25.2722 93.1597 26.4353 93.1597 27.9412V28.9783H87.104C87.186 29.5994 87.4321 30.0974 87.8423 30.4724C88.2583 30.8474 88.7827 31.0349 89.4155 31.0349C90.3941 31.0349 91.1587 30.6804 91.7095 29.9714L92.9575 31.3689C92.5767 31.908 92.061 32.3298 91.4107 32.6345C90.7603 32.9333 90.0396 33.0828 89.2485 33.0828ZM88.9585 25.2781C88.4546 25.2781 88.0444 25.448 87.728 25.7878C87.4175 26.1277 87.2183 26.614 87.1304 27.2468H90.6636V27.0447C90.6519 26.4822 90.4995 26.0486 90.2066 25.7439C89.9136 25.4333 89.4976 25.2781 88.9585 25.2781ZM98.1206 32.907H95.4839V20.1101H98.1206V32.907ZM103.987 21.0593V23.3972H105.613V25.2605H103.987V30.0066C103.987 30.3582 104.054 30.6101 104.189 30.7625C104.324 30.9148 104.581 30.991 104.962 30.991C105.244 30.991 105.493 30.9705 105.709 30.9294V32.8542C105.211 33.0066 104.699 33.0828 104.171 33.0828C102.39 33.0828 101.482 32.1833 101.447 30.3845V25.2605H100.058V23.3972H101.447V21.0593H103.987Z" fill="#2E2C2C"/>
</svg>
